Coordinates
version=1
nRows=6
nColumns=107
inDegrees=yes

Units are S.I. units (second, meters, Newtons, ...)
If the header above contains a line with 'inDegrees', this indicates whether rotational values are in degrees (yes) or radians (no).

endheader
time	sternoclavicular_r2	sternoclavicular_r3	unrotscap_r3	unrotscap_r2	acromioclavicular_r2	acromioclavicular_r3	acromioclavicular_r1	unrothum_r1	unrothum_r3	unrothum_r2	elv_angle	shoulder_elv	shoulder1_r2	shoulder_rot	elbow_flexion	pro_sup	deviation	flexion	proximal_distal_r1	proximal_distal_r3	cmc_flexion	cmc_abduction	mp_flexion	ip_flexion	mcp2_flexion	mcp2_abduction	pm2_flexion	md2_flexion	mcp3_flexion	mcp3_abduction	pm3_flexion	md3_flexion	mcp4_flexion	mcp4_abduction	pm4_flexion	md4_flexion	mcp5_flexion	mcp5_abduction	pm5_flexion	md5_flexion	bicpt_tx	bicpt_ty	bicpt_tz	bicpt2_tx	bicpt2_ty	bicpt2_tz	ptpt_tx	ptpt_ty	ptpt_tz	FCUpt_tx	FCUpt_ty	FCUpt_tz	EDCpt_tx	EDCpt_ty	EDCpt_tz	APLpt_tx	APLpt_ty	APLpt_tz	FPLpt_tx	FPLpt_ty	FPLpt_tz	FPLpt2_tx	FPLpt2_ty	FPLpt2_tz	PEC1pt2_tx	PEC1pt2_ty	PEC1pt2_tz	PEC1pt3_tx	PEC1pt3_ty	PEC1pt3_tz	PEC2pt2_tx	PEC2pt2_ty	PEC2pt2_tz	PEC2pt3_tx	PEC2pt3_ty	PEC2pt3_tz	PEC3pt2_tx	PEC3pt2_ty	PEC3pt2_tz	PEC3pt3_tx	PEC3pt3_ty	PEC3pt3_tz	DELT2pt2a_tx	DELT2pt2a_ty	DELT2pt2a_tz	DELT2pt2_tx	DELT2pt2_ty	DELT2pt2_tz	LAT1pt2_tx	LAT1pt2_ty	LAT1pt2_tz	LAT1pt3_tx	LAT1pt3_ty	LAT1pt3_tz	LAT2pt2_tx	LAT2pt2_ty	LAT2pt2_tz	LAT2pt3_tx	LAT2pt3_ty	LAT2pt3_tz	LAT3pt2_tx	LAT3pt2_ty	LAT3pt2_tz	LAT3pt3_tx	LAT3pt3_ty	LAT3pt3_tz
      1.70000000	     -0.30302982	      0.12834913	     -0.12834913	      0.30302982	     -0.06135737	      0.49586871	      0.22288957	     -0.22288957	     -0.49586871	      0.06135737	    111.34163907	     71.74500276	     -1.94327820	    -73.37452111	     30.13172175	     87.52515573	      0.41351301	     -1.14439558	      0.42123669	     -0.57219779	      6.44298890	     18.64774509	    -30.62613271	    -20.16134581	     25.62631075	    -10.10646131	     11.76524695	    -16.89231345	     18.34576551	    -13.43730921	     11.83501190	     11.53723624	     -8.06076452	    -11.78723304	     17.94620404	     19.28853299	    -44.50101202	     -4.92106475	     11.42518755	      5.14850862	      0.00089666	     -0.03105356	     -0.00485628	      0.01407959	     -0.01838543	     -0.00081323	      0.00108288	     -0.06908175	     -0.00710062	      0.01291356	     -0.18218576	      0.00012668	     -0.01050299	      0.00366207	     -0.00080682	      0.00007412	      0.00002965	      0.00014824	      0.00009487	      0.00028462	      0.00016010	      0.00003725	     -0.00013801	     -0.00016562	      0.00235164	      0.00825068	      0.00573961	     -0.00769267	      0.01857400	     -0.01761740	      0.00235164	      0.00825068	      0.00573961	      0.00051816	      0.01721882	     -0.00904785	      0.00377696	      0.00458810	      0.01553468	      0.00000000	      0.00687869	      0.00000000	     -0.00673606	     -0.03112939	     -0.00566624	      0.02552391	     -0.00235437	     -0.03510713	     -0.00083703	      0.01403015	     -0.00573961	      0.00231179	      0.02024805	     -0.01674051	     -0.00562003	      0.01215680	     -0.00514173	     -0.01171836	      0.02566879	     -0.02873788	     -0.02200182	      0.01359170	     -0.00689550	     -0.01458816	      0.02965463	     -0.03591239
      1.73333333	     -0.30315243	      0.12840106	     -0.12840106	      0.30315243	     -0.06138220	      0.49606935	      0.22297976	     -0.22297976	     -0.49606935	      0.06138220	    110.99927132	     71.77403253	     -1.93730275	    -72.38035081	     30.11800844	     87.59056639	      0.41386594	     -1.14403185	      0.42147671	     -0.57201592	      6.04249137	     19.16763054	    -30.11385607	    -11.61828626	     23.00845323	    -10.94047618	     12.12257160	    -24.49847199	     11.88908109	    -13.57487217	     11.18599464	     11.06669026	    -13.19471097	    -11.05109832	     11.74220931	     20.37570988	    -49.16214183	     -3.51029895	     12.37555200	      5.06429998	      0.00089621	     -0.03105198	     -0.00485602	      0.01407260	     -0.01838170	     -0.00080188	      0.00107805	     -0.06908487	     -0.00710589	      0.01292111	     -0.18218351	      0.00012856	     -0.01051084	      0.00366569	     -0.00080898	      0.00007444	      0.00002978	      0.00014888	      0.00009528	      0.00028585	      0.00016079	      0.00003791	     -0.00013081	     -0.00015698	      0.00235260	      0.00825402	      0.00574193	     -0.00769578	      0.01858152	     -0.01762453	      0.00235260	      0.00825402	      0.00574193	      0.00051837	      0.01722578	     -0.00905151	      0.00377811	      0.00458996	      0.01553769	      0.00000000	      0.00688428	      0.00000000	     -0.00673879	     -0.03114198	     -0.00567089	      0.02565345	     -0.00231858	     -0.03443734	     -0.00083736	      0.01403582	     -0.00574193	      0.00231272	      0.02025624	     -0.01674729	     -0.00562230	      0.01216172	     -0.00514381	     -0.01172310	      0.02567918	     -0.02874951	     -0.02201072	      0.01359720	     -0.00689829	     -0.01459407	      0.02966663	     -0.03592692
      1.76666667	     -0.30408016	      0.12879401	     -0.12879401	      0.30408016	     -0.06157005	      0.49758747	      0.22366214	     -0.22366214	     -0.49758747	      0.06157005	    110.66736967	     71.99368174	     -1.93150998	    -71.30745458	     29.63475162	     87.81806593	      0.41836595	     -1.16688427	      0.42451898	     -0.58344214	      7.59017052	     20.04925624	    -28.96979243	    -11.06316666	     21.76014339	    -11.19575332	     11.41389468	    -24.89904449	      8.19615151	    -13.67556481	      9.52415281	     10.55366382	    -16.61633855	    -10.54244667	      9.93390211	     19.87204293	    -50.15256642	     -3.01779690	     11.92960494	      4.98033846	      0.00088023	     -0.03099660	     -0.00484710	      0.01404820	     -0.01825043	     -0.00076239	      0.00106124	     -0.06909574	     -0.00712422	      0.01294736	     -0.18217570	      0.00013511	     -0.01053814	      0.00367829	     -0.00081649	      0.00005360	      0.00002144	      0.00010719	      0.00006860	      0.00020581	      0.00011577	      0.00003561	     -0.00015775	     -0.00018930	      0.00235979	      0.00827928	      0.00575950	     -0.00771933	      0.01863838	     -0.01767846	      0.00235979	      0.00827928	      0.00575950	      0.00051995	      0.01727850	     -0.00907921	      0.00378676	      0.00460400	      0.01556031	      0.00000000	      0.00692673	      0.00000000	     -0.00675941	     -0.03123728	     -0.00570617	      0.02577824	     -0.00227971	     -0.03371085	     -0.00083993	      0.01407878	     -0.00575950	      0.00231980	      0.02031823	     -0.01679854	     -0.00563951	      0.01219894	     -0.00515955	     -0.01175898	      0.02575776	     -0.02883749	     -0.02207808	      0.01363881	     -0.00691940	     -0.01463873	      0.02975741	     -0.03603687
      1.80000000	     -0.30389181	      0.12871423	     -0.12871423	      0.30389181	     -0.06153191	      0.49727925	      0.22352360	     -0.22352360	     -0.49727925	      0.06153191	    110.42906018	     71.94908704	     -1.92735069	    -70.60727406	     29.77415315	     87.46622696	      0.41300565	     -1.14324180	      0.42089113	     -0.57162090	      7.34350451	     18.63180558	    -27.71431990	     -8.60810882	     18.55496041	    -11.40327921	     10.27014838	    -26.90759749	      2.56752810	    -13.53824198	      8.20621259	      9.97461688	    -20.89735318	     -8.70683984	      5.78110803	     18.84279547	    -52.65361513	     -0.69541935	     10.72484862	      5.05198259	      0.00088484	     -0.03101257	     -0.00484968	      0.01408589	     -0.01828829	     -0.00082345	      0.00108723	     -0.06907893	     -0.00709587	      0.01290677	     -0.18218778	      0.00012499	     -0.01049592	      0.00365881	     -0.00080488	      0.00007515	      0.00003006	      0.00015031	      0.00009620	      0.00028859	      0.00016233	      0.00003593	     -0.00015364	     -0.00018437	      0.00235833	      0.00827415	      0.00575593	     -0.00771455	      0.01862683	     -0.01766751	      0.00235833	      0.00827415	      0.00575593	      0.00051963	      0.01726780	     -0.00907359	      0.00378501	      0.00460115	      0.01555572	      0.00000000	      0.00691810	      0.00000000	     -0.00675523	     -0.03121794	     -0.00569900	      0.02585141	     -0.00225420	     -0.03323494	     -0.00083941	      0.01407006	     -0.00575593	      0.00231836	      0.02030565	     -0.01678813	     -0.00563602	      0.01219138	     -0.00515636	     -0.01175169	      0.02574181	     -0.02881963	     -0.02206441	      0.01363037	     -0.00691511	     -0.01462966	      0.02973898	     -0.03601455
      1.83333333	     -0.30408948	      0.12879795	     -0.12879795	      0.30408948	     -0.06157193	      0.49760271	      0.22366899	     -0.22366899	     -0.49760271	      0.06157193	    110.14297284	     71.99588629	     -1.92235752	    -69.71306639	     29.70795848	     87.24524218	      0.41266571	     -1.13870999	      0.42065947	     -0.56935500	      8.06424212	     17.93481851	    -28.29345344	     -1.36267381	     17.30830782	    -11.52202344	     13.15730429	    -41.53194589	     -0.60648871	    -13.44242766	      7.95080459	      9.49234755	    -20.25357644	     -7.60480757	     -3.43600984	     22.08763420	    -52.83250403	      0.13221074	      9.62502440	      5.07892300	      0.00088265	     -0.03100499	     -0.00484845	      0.01410942	     -0.01827031	     -0.00086171	      0.00110356	     -0.06906837	     -0.00707807	      0.01288129	     -0.18219535	      0.00011868	     -0.01046940	      0.00364659	     -0.00079762	      0.00007917	      0.00003167	      0.00015834	      0.00010134	      0.00030402	      0.00017101	      0.00003501	     -0.00016555	     -0.00019866	      0.00235987	      0.00827953	      0.00575968	     -0.00771957	      0.01863895	     -0.01767900	      0.00235987	      0.00827953	      0.00575968	      0.00051997	      0.01727903	     -0.00907949	      0.00378685	      0.00460414	      0.01556053	      0.00000000	      0.00692715	      0.00000000	     -0.00675962	     -0.03123824	     -0.00570653	      0.02593535	     -0.00222149	     -0.03262531	     -0.00083995	      0.01407921	     -0.00575968	      0.00231987	      0.02031886	     -0.01679905	     -0.00563968	      0.01219931	     -0.00515971	     -0.01175934	      0.02575855	     -0.02883838	     -0.02207876	      0.01363923	     -0.00691961	     -0.01463918	      0.02975832	     -0.03603797
      1.86666667	     -0.30403608	      0.12877534	     -0.12877534	      0.30403608	     -0.06156112	      0.49751534	      0.22362972	     -0.22362972	     -0.49751534	      0.06156112	    109.93684031	     71.98324547	     -1.91875983	    -69.08685319	     29.74082843	     87.06523230	      0.41284213	     -1.12948253	      0.42077978	     -0.56474126	      8.01595050	     16.94269649	    -27.60665920	      5.29064414	     16.19926883	    -11.70590572	     11.36042033	    -36.80136370	     -2.00135855	    -13.34597233	      7.33464555	      9.05918725	    -21.68706427	     -6.61577738	     -3.04430425	     19.16582059	    -53.39526038	      0.53663245	     10.43812526	      5.06422327	      0.00088373	     -0.03100875	     -0.00484906	      0.01412850	     -0.01827924	     -0.00089283	      0.00111686	     -0.06905977	     -0.00706357	      0.01286055	     -0.18220150	      0.00011356	     -0.01044780	      0.00363664	     -0.00079173	      0.00008726	      0.00003490	      0.00017452	      0.00011169	      0.00033507	      0.00018848	      0.00003508	     -0.00016470	     -0.00019764	      0.00235945	      0.00827808	      0.00575866	     -0.00771821	      0.01863568	     -0.01767590	      0.00235945	      0.00827808	      0.00575866	      0.00051988	      0.01727599	     -0.00907789	      0.00378635	      0.00460334	      0.01555924	      0.00000000	      0.00692471	      0.00000000	     -0.00675843	     -0.03123276	     -0.00570449	      0.02598786	     -0.00219850	     -0.03219729	     -0.00083981	      0.01407674	     -0.00575866	      0.00231946	      0.02031529	     -0.01679610	     -0.00563869	      0.01219717	     -0.00515880	     -0.01175727	      0.02575403	     -0.02883331	     -0.02207488	      0.01363684	     -0.00691840	     -0.01463661	      0.02975310	     -0.03603164
